<svg xmlns="http://www.w3.org/2000/svg" xmlns:xlink="http://www.w3.org/1999/xlink" width="297.099" height="301.48" viewBox="0 0 297.099 301.48"><defs><linearGradient id="a" x1="0.138" y1="0.14" x2="0.683" y2="0.945" gradientUnits="objectBoundingBox"><stop offset="0" stop-color="#a6c4fd"/><stop offset="1" stop-color="#a8e1ff"/></linearGradient><linearGradient id="b" x1="0.174" y1="0.145" x2="0.764" y2="0.901" gradientUnits="objectBoundingBox"><stop offset="0" stop-color="#5f97ff"/><stop offset="1" stop-color="#86b0ff"/></linearGradient><linearGradient id="c" x1="0.234" y1="0.132" x2="0.739" y2="0.842" gradientUnits="objectBoundingBox"><stop offset="0" stop-color="#1f6cfc"/><stop offset="1" stop-color="#74a5ff"/></linearGradient><linearGradient id="d" x1="0.072" y1="0.249" x2="0.963" y2="0.715" gradientUnits="objectBoundingBox"><stop offset="0" stop-color="#1b3972"/><stop offset="1" stop-color="#416ec3"/></linearGradient></defs><g transform="translate(-1455.229 -117)"><g transform="translate(90 46)"><g transform="translate(662 -74)"><g transform="translate(745 145)"><circle cx="104" cy="104" r="104" transform="translate(0 0)" fill="url(#a)"/><ellipse cx="82.5" cy="80" rx="82.5" ry="80" transform="translate(0 26)" fill="url(#b)"/><ellipse cx="60" cy="59.5" rx="60" ry="59.5" transform="translate(33 65)" fill="url(#c)"/><ellipse cx="39.38" cy="39.38" rx="39.38" ry="39.38" transform="translate(91.336 87.298) rotate(30)" fill="url(#d)"/></g></g></g><path d="M4.4,0l9.44-59.44H26.16l15.6,33.12,5.28-33.12H62.56L53.12,0H40.8L25.2-33.12,19.92,0ZM81.68,0l2.56-16L73.76-59.44H90.64l3.92,26.8,12.88-26.8h17.52L99.76-16,97.2,0Zm45.84,0,9.44-59.44h23.28q8.32,0,12.88,2.64a13.973,13.973,0,0,1,6.32,7.32,30.7,30.7,0,0,1,1.76,10.84q0,2.56-.2,5.36t-.68,5.76a49.194,49.194,0,0,1-3.64,13.04A24.561,24.561,0,0,1,170.52-6a22.445,22.445,0,0,1-8.76,4.6A42.8,42.8,0,0,1,150.32,0Zm17.76-13.92H152a12.052,12.052,0,0,0,4.84-.92,9.35,9.35,0,0,0,3.64-2.84,16.607,16.607,0,0,0,2.56-4.96A46.82,46.82,0,0,0,164.8-30q.4-2.8.64-4.84a28.755,28.755,0,0,0,.24-3.08,9.16,9.16,0,0,0-.96-4.6,5.236,5.236,0,0,0-3-2.32,17.2,17.2,0,0,0-5.32-.68h-6.16ZM213.6.48q-10.08,0-15.16-4.44t-5.08-14.28a36.77,36.77,0,0,1,.32-4.6q.32-2.52.72-5.16l5.04-31.44h15.52L209.6-25.6q-.24,1.68-.48,3.2a18.05,18.05,0,0,0-.24,2.8,6.364,6.364,0,0,0,1.52,4.56q1.52,1.6,5.44,1.6a10.764,10.764,0,0,0,3.64-.56,6.106,6.106,0,0,0,2.68-1.92,11.8,11.8,0,0,0,1.92-3.72,36.387,36.387,0,0,0,1.36-5.96l5.36-33.84h15.52L240.56-23.2A45.146,45.146,0,0,1,237.12-11a18.869,18.869,0,0,1-5.56,7.16,19.342,19.342,0,0,1-7.8,3.4A50.771,50.771,0,0,1,213.6.48Zm59.2,0q-4.8,0-8.6-.36t-6.68-.88q-2.88-.52-4.96-1.08l1.92-12.32q3.76.32,8.52.52t9.4.2a25.767,25.767,0,0,0,4.84-.36,5.079,5.079,0,0,0,2.64-1.2,4.07,4.07,0,0,0,1.08-2.28l.16-.88a2.35,2.35,0,0,0,.08-.56v-.48a2.282,2.282,0,0,0-1.32-2.24,10.479,10.479,0,0,0-4.28-.64h-3.2q-7.28,0-11.32-3.96a13.463,13.463,0,0,1-4.04-10.04,25.448,25.448,0,0,1,.24-3.44l.72-4.56a18.924,18.924,0,0,1,3.88-9.24,16.452,16.452,0,0,1,7.68-5.04,35.62,35.62,0,0,1,11.08-1.56q2.16,0,4.4.12t4.56.4q2.32.28,4.72.72t4.88,1.08l-1.92,12.32q-2.88-.32-6.2-.44t-6.56-.2q-3.24-.08-5.88-.08a10.971,10.971,0,0,0-2.96.36,4.958,4.958,0,0,0-2.12,1.16,3.866,3.866,0,0,0-1.08,2.24l-.16.88a5.141,5.141,0,0,0-.12.68,6.171,6.171,0,0,0-.04.68,3.068,3.068,0,0,0,.96,2.44,4.7,4.7,0,0,0,3.12.84h3.52q8.08,0,12.32,3.88a12.713,12.713,0,0,1,4.24,9.8,22.155,22.155,0,0,1-.24,3.12l-.88,5.6a18.852,18.852,0,0,1-3,8.08,14.06,14.06,0,0,1-6.88,5Q280.72.48,272.8.48Z" transform="translate(1452 417)" fill="#5e85d0" stroke="#5e85d0" stroke-linecap="round" stroke-width="2"/><path d="M1498.13,356.558l-8.84,55.428,2.872,6.072h13.807l9.77-61.5Z" fill="#9bbfff"/><path d="M1558.806,356.558l-11.721,24.77-11.708,19.683-2.731,17.075h17.272l2.891-17.075,25.954-44.454Z" fill="#9bbfff"/></g></svg>